# xmcd CD database file
#
# Track frame offsets:
#	150
#	13063
#	30173
#	48805
#	70518
#	83508
#	98128
#	118445
#	134718
#	150285
#	152383
#	173788
#	184973
#	208285
#	213270
#	233610
#	250497
#	271542
#	284229
#	304074
#
# Disc length: 4332 seconds
#
# Revision: 0
# Processed by: cddbd v1.5PL3 Copyright (c) Steve Scherf et al.
# Submitted via: CDex 1.40Release
#
DISCID=0c10ea14
DTITLE=Yachines - Yachines
DYEAR=1998
DGENRE=Pop
TTITLE0=Smashing Days
TTITLE1=Yachines Town
TTITLE2=I Believe
TTITLE3=Les Nuits Magnetiques
TTITLE4=Josephine
TTITLE5=Peppermint Drops
TTITLE6=Superstar
TTITLE7=Les Promesses
TTITLE8=Just in Time
TTITLE9=Fancy
TTITLE10=Kane's Dream
TTITLE11=Paul
TTITLE12=Here Today
TTITLE13=Mr Tambourine
TTITLE14=My Love Is a Star
TTITLE15=One Love
TTITLE16=Do You
TTITLE17=Veronica
TTITLE18=All Around the World
TTITLE19=Le Reve Americain
EXTD=YEAR: 1998 ID3G: 13
EXTT0=
EXTT1=
EXTT2=
EXTT3=
EXTT4=
EXTT5=
EXTT6=
EXTT7=
EXTT8=
EXTT9=
EXTT10=
EXTT11=
EXTT12=
EXTT13=
EXTT14=
EXTT15=
EXTT16=
EXTT17=
EXTT18=
EXTT19=
PLAYORDER=
